<mxfile host="app.diagrams.net" modified="2023-09-08T08:34:28.906Z" agent="Mozilla/5.0 (Windows NT 10.0; Win64; x64) AppleWebKit/537.36 (KHTML, like Gecko) Chrome/116.0.0.0 Safari/537.36 Edg/116.0.1938.62" etag="Miv4EDGSviMYy7qOm0GR" version="21.7.2" type="github">
  <diagram name="Page-1" id="SHdq22vftooARuEq9iW2">
    <mxGraphModel dx="2292" dy="1897" grid="1" gridSize="10" guides="1" tooltips="1" connect="1" arrows="1" fold="1" page="1" pageScale="1" pageWidth="850" pageHeight="1100" math="0" shadow="0">
      <root>
        <mxCell id="0" />
        <mxCell id="1" parent="0" />
        <mxCell id="9S1BjOA5Y7KeHYhdbUai-14" value="" style="edgeStyle=orthogonalEdgeStyle;rounded=0;orthogonalLoop=1;jettySize=auto;html=1;entryX=0;entryY=0.5;entryDx=0;entryDy=0;entryPerimeter=0;" edge="1" parent="1" source="9S1BjOA5Y7KeHYhdbUai-4" target="9S1BjOA5Y7KeHYhdbUai-28">
          <mxGeometry relative="1" as="geometry">
            <mxPoint x="210" y="130" as="targetPoint" />
            <Array as="points">
              <mxPoint x="210" y="130" />
              <mxPoint x="210" y="170" />
            </Array>
          </mxGeometry>
        </mxCell>
        <mxCell id="9S1BjOA5Y7KeHYhdbUai-17" value="Bid" style="edgeLabel;html=1;align=center;verticalAlign=middle;resizable=0;points=[];" vertex="1" connectable="0" parent="9S1BjOA5Y7KeHYhdbUai-14">
          <mxGeometry x="-0.667" y="-1" relative="1" as="geometry">
            <mxPoint as="offset" />
          </mxGeometry>
        </mxCell>
        <mxCell id="9S1BjOA5Y7KeHYhdbUai-15" value="" style="edgeStyle=orthogonalEdgeStyle;rounded=0;orthogonalLoop=1;jettySize=auto;html=1;entryX=0;entryY=0.5;entryDx=0;entryDy=0;entryPerimeter=0;" edge="1" parent="1" source="9S1BjOA5Y7KeHYhdbUai-4" target="9S1BjOA5Y7KeHYhdbUai-28">
          <mxGeometry relative="1" as="geometry">
            <mxPoint x="210" y="150" as="targetPoint" />
            <Array as="points">
              <mxPoint x="210" y="150" />
              <mxPoint x="210" y="170" />
            </Array>
          </mxGeometry>
        </mxCell>
        <mxCell id="9S1BjOA5Y7KeHYhdbUai-18" value="Ask" style="edgeLabel;html=1;align=center;verticalAlign=middle;resizable=0;points=[];" vertex="1" connectable="0" parent="9S1BjOA5Y7KeHYhdbUai-15">
          <mxGeometry x="-0.7919" relative="1" as="geometry">
            <mxPoint as="offset" />
          </mxGeometry>
        </mxCell>
        <mxCell id="9S1BjOA5Y7KeHYhdbUai-20" value="" style="rounded=0;orthogonalLoop=1;jettySize=auto;html=1;edgeStyle=orthogonalEdgeStyle;startArrow=classic;startFill=1;entryX=0.764;entryY=-0.002;entryDx=0;entryDy=0;entryPerimeter=0;" edge="1" parent="1" target="9S1BjOA5Y7KeHYhdbUai-38">
          <mxGeometry relative="1" as="geometry">
            <mxPoint x="70" y="180" as="sourcePoint" />
            <mxPoint x="230" y="170" as="targetPoint" />
            <Array as="points">
              <mxPoint x="180" y="180" />
              <mxPoint x="180" y="240" />
            </Array>
          </mxGeometry>
        </mxCell>
        <mxCell id="9S1BjOA5Y7KeHYhdbUai-22" value="Live (Websocket)" style="edgeLabel;html=1;align=center;verticalAlign=middle;resizable=0;points=[];" vertex="1" connectable="0" parent="9S1BjOA5Y7KeHYhdbUai-20">
          <mxGeometry x="-0.3244" y="-2" relative="1" as="geometry">
            <mxPoint as="offset" />
          </mxGeometry>
        </mxCell>
        <mxCell id="9S1BjOA5Y7KeHYhdbUai-4" value="Client" style="shape=umlActor;verticalLabelPosition=bottom;verticalAlign=top;html=1;outlineConnect=0;" vertex="1" parent="1">
          <mxGeometry x="30" y="120" width="30" height="60" as="geometry" />
        </mxCell>
        <mxCell id="9S1BjOA5Y7KeHYhdbUai-42" style="edgeStyle=orthogonalEdgeStyle;rounded=0;orthogonalLoop=1;jettySize=auto;html=1;entryX=0.514;entryY=0.99;entryDx=0;entryDy=0;entryPerimeter=0;" edge="1" parent="1" source="9S1BjOA5Y7KeHYhdbUai-5" target="9S1BjOA5Y7KeHYhdbUai-41">
          <mxGeometry relative="1" as="geometry" />
        </mxCell>
        <mxCell id="9S1BjOA5Y7KeHYhdbUai-5" value="SIP" style="ellipse;shape=cloud;whiteSpace=wrap;html=1;" vertex="1" parent="1">
          <mxGeometry x="200" y="600" width="120" height="80" as="geometry" />
        </mxCell>
        <mxCell id="9S1BjOA5Y7KeHYhdbUai-7" value="Functional Requirements:&lt;br&gt;View Open Buy Orders (on single market)&amp;nbsp;&lt;br&gt;View Open Sell Orders (on single market)&lt;br&gt;View Buy/Sell History (on single market)&lt;br&gt;&lt;br&gt;Additional Requirements?&lt;br&gt;Create Buy Order - Buy Limit Order&lt;br&gt;Create Sell Order - Sell Limit Order&lt;br&gt;Day Orders&lt;br&gt;Cancel Orders&lt;br&gt;&lt;br&gt;&lt;br&gt;Out of Scope?&lt;br&gt;Good &#39;Til Canceled Orders&lt;br&gt;Market Order&lt;br&gt;Stop Loss Order - Convert to Market Order after Stop Price&lt;br&gt;Stop Limit Order - Convert to Sell Limit after Stop Price" style="text;html=1;align=center;verticalAlign=middle;resizable=0;points=[];autosize=1;strokeColor=none;fillColor=none;" vertex="1" parent="1">
          <mxGeometry x="-50" y="-360" width="340" height="260" as="geometry" />
        </mxCell>
        <mxCell id="9S1BjOA5Y7KeHYhdbUai-8" value="Non-Functional Requirements&lt;br&gt;&lt;br&gt;Transactions per second" style="text;html=1;align=center;verticalAlign=middle;resizable=0;points=[];autosize=1;strokeColor=none;fillColor=none;" vertex="1" parent="1">
          <mxGeometry x="540" y="-315" width="180" height="60" as="geometry" />
        </mxCell>
        <mxCell id="9S1BjOA5Y7KeHYhdbUai-9" value="Scale:&lt;br&gt;Single Client/Market or Multi-Market&lt;br&gt;Single Security or Multi-Security" style="text;html=1;align=center;verticalAlign=middle;resizable=0;points=[];autosize=1;strokeColor=none;fillColor=none;" vertex="1" parent="1">
          <mxGeometry y="-430" width="210" height="60" as="geometry" />
        </mxCell>
        <mxCell id="9S1BjOA5Y7KeHYhdbUai-12" value="Clarification Questions:&lt;br&gt;Am I operating inside an isolated market? i.e. Only show buy/sell orders and execution history from my market? &lt;br&gt;The dataset schema contains marketCenter and sipFeed implying we should pull all market data from SIP (all bid/ask quotes and trades from every US market).&lt;br&gt;If the later, I&#39;d expect historical data to be across all markets but only show active orders within my market?&lt;br&gt;Do we just want to support a single security at this time?" style="text;html=1;align=center;verticalAlign=middle;resizable=0;points=[];autosize=1;strokeColor=none;fillColor=none;" vertex="1" parent="1">
          <mxGeometry x="-155" y="-580" width="870" height="90" as="geometry" />
        </mxCell>
        <mxCell id="9S1BjOA5Y7KeHYhdbUai-16" value="APIs&lt;br&gt;POST /orders/bid&lt;br&gt;{stock_id: 1, user_id: 123, price: 100, quantity: 50}&lt;br&gt;POST /orders/ask&lt;br&gt;{stock_id:1, user_id: 123, price: 100, quantity: 50}&lt;br&gt;GET /orders?time={timestamp}&lt;br&gt;#return top 5 asks and bids open during timestamp" style="text;html=1;align=center;verticalAlign=middle;resizable=0;points=[];autosize=1;strokeColor=none;fillColor=none;" vertex="1" parent="1">
          <mxGeometry x="-40" y="-30" width="290" height="110" as="geometry" />
        </mxCell>
        <mxCell id="9S1BjOA5Y7KeHYhdbUai-45" style="edgeStyle=orthogonalEdgeStyle;rounded=0;orthogonalLoop=1;jettySize=auto;html=1;entryX=0.5;entryY=0.88;entryDx=0;entryDy=0;entryPerimeter=0;startArrow=classic;startFill=1;" edge="1" parent="1" source="9S1BjOA5Y7KeHYhdbUai-24" target="9S1BjOA5Y7KeHYhdbUai-38">
          <mxGeometry relative="1" as="geometry" />
        </mxCell>
        <mxCell id="9S1BjOA5Y7KeHYhdbUai-46" value="Websocket" style="edgeLabel;html=1;align=center;verticalAlign=middle;resizable=0;points=[];" vertex="1" connectable="0" parent="9S1BjOA5Y7KeHYhdbUai-45">
          <mxGeometry x="0.3493" y="2" relative="1" as="geometry">
            <mxPoint as="offset" />
          </mxGeometry>
        </mxCell>
        <mxCell id="9S1BjOA5Y7KeHYhdbUai-24" value="ActionCable Server" style="rounded=0;whiteSpace=wrap;html=1;" vertex="1" parent="1">
          <mxGeometry x="70" y="370" width="150" height="60" as="geometry" />
        </mxCell>
        <mxCell id="9S1BjOA5Y7KeHYhdbUai-54" style="edgeStyle=orthogonalEdgeStyle;rounded=0;orthogonalLoop=1;jettySize=auto;html=1;entryX=-0.033;entryY=0.63;entryDx=0;entryDy=0;entryPerimeter=0;" edge="1" parent="1" source="9S1BjOA5Y7KeHYhdbUai-28" target="9S1BjOA5Y7KeHYhdbUai-47">
          <mxGeometry relative="1" as="geometry" />
        </mxCell>
        <mxCell id="9S1BjOA5Y7KeHYhdbUai-28" value="Load Balancer" style="strokeWidth=2;html=1;shape=mxgraph.flowchart.multi-document;whiteSpace=wrap;" vertex="1" parent="1">
          <mxGeometry x="230" y="120" width="130" height="100" as="geometry" />
        </mxCell>
        <mxCell id="9S1BjOA5Y7KeHYhdbUai-34" value="" style="rounded=0;orthogonalLoop=1;jettySize=auto;html=1;edgeStyle=orthogonalEdgeStyle;startArrow=none;startFill=0;" edge="1" parent="1" source="9S1BjOA5Y7KeHYhdbUai-4">
          <mxGeometry relative="1" as="geometry">
            <mxPoint x="80" y="190" as="sourcePoint" />
            <mxPoint x="230" y="170" as="targetPoint" />
            <Array as="points">
              <mxPoint x="210" y="160" />
              <mxPoint x="210" y="170" />
            </Array>
          </mxGeometry>
        </mxCell>
        <mxCell id="9S1BjOA5Y7KeHYhdbUai-35" value="History" style="edgeLabel;html=1;align=center;verticalAlign=middle;resizable=0;points=[];" vertex="1" connectable="0" parent="9S1BjOA5Y7KeHYhdbUai-34">
          <mxGeometry x="-0.3244" y="-2" relative="1" as="geometry">
            <mxPoint as="offset" />
          </mxGeometry>
        </mxCell>
        <mxCell id="9S1BjOA5Y7KeHYhdbUai-38" value="Load Balancer" style="strokeWidth=2;html=1;shape=mxgraph.flowchart.multi-document;whiteSpace=wrap;" vertex="1" parent="1">
          <mxGeometry x="80" y="240" width="130" height="100" as="geometry" />
        </mxCell>
        <mxCell id="9S1BjOA5Y7KeHYhdbUai-39" value="ActionCable Server" style="rounded=0;whiteSpace=wrap;html=1;" vertex="1" parent="1">
          <mxGeometry x="80" y="380" width="150" height="60" as="geometry" />
        </mxCell>
        <mxCell id="9S1BjOA5Y7KeHYhdbUai-40" value="ActionCable Server" style="rounded=0;whiteSpace=wrap;html=1;" vertex="1" parent="1">
          <mxGeometry x="90" y="390" width="150" height="60" as="geometry" />
        </mxCell>
        <mxCell id="9S1BjOA5Y7KeHYhdbUai-43" style="edgeStyle=orthogonalEdgeStyle;rounded=0;orthogonalLoop=1;jettySize=auto;html=1;entryX=0.5;entryY=1;entryDx=0;entryDy=0;startArrow=classic;startFill=1;" edge="1" parent="1" source="9S1BjOA5Y7KeHYhdbUai-41" target="9S1BjOA5Y7KeHYhdbUai-40">
          <mxGeometry relative="1" as="geometry" />
        </mxCell>
        <mxCell id="9S1BjOA5Y7KeHYhdbUai-41" value="" style="image;sketch=0;aspect=fixed;html=1;points=[];align=center;fontSize=12;image=img/lib/mscae/Cache_Redis_Product.svg;" vertex="1" parent="1">
          <mxGeometry x="140" y="490" width="50" height="42" as="geometry" />
        </mxCell>
        <mxCell id="9S1BjOA5Y7KeHYhdbUai-47" value="" style="whiteSpace=wrap;html=1;aspect=fixed;" vertex="1" parent="1">
          <mxGeometry x="400" y="120" width="80" height="80" as="geometry" />
        </mxCell>
        <mxCell id="9S1BjOA5Y7KeHYhdbUai-48" value="" style="whiteSpace=wrap;html=1;aspect=fixed;" vertex="1" parent="1">
          <mxGeometry x="410" y="130" width="80" height="80" as="geometry" />
        </mxCell>
        <mxCell id="9S1BjOA5Y7KeHYhdbUai-55" style="edgeStyle=orthogonalEdgeStyle;rounded=0;orthogonalLoop=1;jettySize=auto;html=1;entryX=0.5;entryY=0;entryDx=0;entryDy=0;entryPerimeter=0;" edge="1" parent="1" source="9S1BjOA5Y7KeHYhdbUai-49" target="9S1BjOA5Y7KeHYhdbUai-51">
          <mxGeometry relative="1" as="geometry">
            <Array as="points">
              <mxPoint x="460" y="330" />
            </Array>
          </mxGeometry>
        </mxCell>
        <mxCell id="9S1BjOA5Y7KeHYhdbUai-61" style="edgeStyle=orthogonalEdgeStyle;rounded=0;orthogonalLoop=1;jettySize=auto;html=1;entryX=0;entryY=0.5;entryDx=0;entryDy=0;entryPerimeter=0;" edge="1" parent="1" source="9S1BjOA5Y7KeHYhdbUai-49" target="9S1BjOA5Y7KeHYhdbUai-52">
          <mxGeometry relative="1" as="geometry" />
        </mxCell>
        <mxCell id="9S1BjOA5Y7KeHYhdbUai-62" style="edgeStyle=orthogonalEdgeStyle;rounded=0;orthogonalLoop=1;jettySize=auto;html=1;entryX=0;entryY=0.5;entryDx=0;entryDy=0;entryPerimeter=0;" edge="1" parent="1" source="9S1BjOA5Y7KeHYhdbUai-49" target="9S1BjOA5Y7KeHYhdbUai-53">
          <mxGeometry relative="1" as="geometry" />
        </mxCell>
        <mxCell id="9S1BjOA5Y7KeHYhdbUai-82" style="edgeStyle=orthogonalEdgeStyle;rounded=0;orthogonalLoop=1;jettySize=auto;html=1;" edge="1" parent="1" source="9S1BjOA5Y7KeHYhdbUai-49">
          <mxGeometry relative="1" as="geometry">
            <mxPoint x="290" y="616" as="targetPoint" />
            <Array as="points">
              <mxPoint x="430" y="240" />
              <mxPoint x="290" y="240" />
            </Array>
          </mxGeometry>
        </mxCell>
        <mxCell id="9S1BjOA5Y7KeHYhdbUai-94" style="edgeStyle=orthogonalEdgeStyle;rounded=0;orthogonalLoop=1;jettySize=auto;html=1;entryX=0;entryY=0.5;entryDx=0;entryDy=0;entryPerimeter=0;" edge="1" parent="1" source="9S1BjOA5Y7KeHYhdbUai-49" target="9S1BjOA5Y7KeHYhdbUai-91">
          <mxGeometry relative="1" as="geometry">
            <Array as="points">
              <mxPoint x="490" y="270" />
              <mxPoint x="545" y="270" />
              <mxPoint x="545" y="268" />
            </Array>
          </mxGeometry>
        </mxCell>
        <mxCell id="9S1BjOA5Y7KeHYhdbUai-49" value="Order Book Service" style="whiteSpace=wrap;html=1;aspect=fixed;" vertex="1" parent="1">
          <mxGeometry x="420" y="140" width="80" height="80" as="geometry" />
        </mxCell>
        <mxCell id="9S1BjOA5Y7KeHYhdbUai-51" value="Orders" style="strokeWidth=2;html=1;shape=mxgraph.flowchart.database;whiteSpace=wrap;" vertex="1" parent="1">
          <mxGeometry x="425" y="330" width="60" height="60" as="geometry" />
        </mxCell>
        <mxCell id="9S1BjOA5Y7KeHYhdbUai-67" style="edgeStyle=orthogonalEdgeStyle;rounded=0;orthogonalLoop=1;jettySize=auto;html=1;entryX=0;entryY=0.5;entryDx=0;entryDy=0;" edge="1" parent="1" source="9S1BjOA5Y7KeHYhdbUai-52" target="9S1BjOA5Y7KeHYhdbUai-74">
          <mxGeometry relative="1" as="geometry">
            <mxPoint x="640" y="133" as="targetPoint" />
          </mxGeometry>
        </mxCell>
        <mxCell id="9S1BjOA5Y7KeHYhdbUai-52" value="Buy Order Queue" style="verticalLabelPosition=bottom;html=1;verticalAlign=top;align=center;strokeColor=none;fillColor=#00BEF2;shape=mxgraph.azure.queue_generic;pointerEvents=1;" vertex="1" parent="1">
          <mxGeometry x="550" y="125" width="50" height="15" as="geometry" />
        </mxCell>
        <mxCell id="9S1BjOA5Y7KeHYhdbUai-70" style="edgeStyle=orthogonalEdgeStyle;rounded=0;orthogonalLoop=1;jettySize=auto;html=1;entryX=0;entryY=0.5;entryDx=0;entryDy=0;" edge="1" parent="1" source="9S1BjOA5Y7KeHYhdbUai-53" target="9S1BjOA5Y7KeHYhdbUai-74">
          <mxGeometry relative="1" as="geometry">
            <mxPoint x="644.9175" y="202.19239999999968" as="targetPoint" />
          </mxGeometry>
        </mxCell>
        <mxCell id="9S1BjOA5Y7KeHYhdbUai-53" value="Sell Order Queue" style="verticalLabelPosition=bottom;html=1;verticalAlign=top;align=center;strokeColor=none;fillColor=#00BEF2;shape=mxgraph.azure.queue_generic;pointerEvents=1;" vertex="1" parent="1">
          <mxGeometry x="550" y="195" width="50" height="15" as="geometry" />
        </mxCell>
        <mxCell id="9S1BjOA5Y7KeHYhdbUai-76" style="edgeStyle=orthogonalEdgeStyle;rounded=0;orthogonalLoop=1;jettySize=auto;html=1;entryX=0;entryY=0.5;entryDx=0;entryDy=0;entryPerimeter=0;" edge="1" parent="1" source="9S1BjOA5Y7KeHYhdbUai-74" target="9S1BjOA5Y7KeHYhdbUai-75">
          <mxGeometry relative="1" as="geometry" />
        </mxCell>
        <mxCell id="9S1BjOA5Y7KeHYhdbUai-74" value="Match Service" style="rounded=0;whiteSpace=wrap;html=1;" vertex="1" parent="1">
          <mxGeometry x="650" y="135" width="120" height="60" as="geometry" />
        </mxCell>
        <mxCell id="9S1BjOA5Y7KeHYhdbUai-78" style="edgeStyle=orthogonalEdgeStyle;rounded=0;orthogonalLoop=1;jettySize=auto;html=1;entryX=0;entryY=0.5;entryDx=0;entryDy=0;" edge="1" parent="1" source="9S1BjOA5Y7KeHYhdbUai-75" target="9S1BjOA5Y7KeHYhdbUai-77">
          <mxGeometry relative="1" as="geometry" />
        </mxCell>
        <mxCell id="9S1BjOA5Y7KeHYhdbUai-75" value="Matched Queue" style="verticalLabelPosition=bottom;html=1;verticalAlign=top;align=center;strokeColor=none;fillColor=#00BEF2;shape=mxgraph.azure.queue_generic;pointerEvents=1;" vertex="1" parent="1">
          <mxGeometry x="840" y="157.5" width="50" height="15" as="geometry" />
        </mxCell>
        <mxCell id="9S1BjOA5Y7KeHYhdbUai-79" style="edgeStyle=orthogonalEdgeStyle;rounded=0;orthogonalLoop=1;jettySize=auto;html=1;entryX=1;entryY=0.5;entryDx=0;entryDy=0;entryPerimeter=0;" edge="1" parent="1" source="9S1BjOA5Y7KeHYhdbUai-77" target="9S1BjOA5Y7KeHYhdbUai-51">
          <mxGeometry relative="1" as="geometry">
            <Array as="points">
              <mxPoint x="980" y="360" />
            </Array>
          </mxGeometry>
        </mxCell>
        <mxCell id="9S1BjOA5Y7KeHYhdbUai-81" style="edgeStyle=orthogonalEdgeStyle;rounded=0;orthogonalLoop=1;jettySize=auto;html=1;" edge="1" parent="1" source="9S1BjOA5Y7KeHYhdbUai-77">
          <mxGeometry relative="1" as="geometry">
            <mxPoint x="318" y="650" as="targetPoint" />
            <Array as="points">
              <mxPoint x="1040" y="650" />
            </Array>
          </mxGeometry>
        </mxCell>
        <mxCell id="9S1BjOA5Y7KeHYhdbUai-77" value="Execute Service" style="rounded=0;whiteSpace=wrap;html=1;" vertex="1" parent="1">
          <mxGeometry x="930" y="135" width="120" height="60" as="geometry" />
        </mxCell>
        <mxCell id="9S1BjOA5Y7KeHYhdbUai-83" value="Match Service" style="rounded=0;whiteSpace=wrap;html=1;" vertex="1" parent="1">
          <mxGeometry x="660" y="145" width="120" height="60" as="geometry" />
        </mxCell>
        <mxCell id="9S1BjOA5Y7KeHYhdbUai-84" value="Match Service" style="rounded=0;whiteSpace=wrap;html=1;" vertex="1" parent="1">
          <mxGeometry x="670" y="155" width="120" height="60" as="geometry" />
        </mxCell>
        <mxCell id="9S1BjOA5Y7KeHYhdbUai-85" value="Execute Service" style="rounded=0;whiteSpace=wrap;html=1;" vertex="1" parent="1">
          <mxGeometry x="940" y="145" width="120" height="60" as="geometry" />
        </mxCell>
        <mxCell id="9S1BjOA5Y7KeHYhdbUai-86" value="Execute Service" style="rounded=0;whiteSpace=wrap;html=1;" vertex="1" parent="1">
          <mxGeometry x="950" y="155" width="120" height="60" as="geometry" />
        </mxCell>
        <mxCell id="9S1BjOA5Y7KeHYhdbUai-87" value="Why do you think time is important?&lt;br&gt;Data should be delivered in real time to ensure up to the second accuracy for buying/selling decisions.&lt;br&gt;Failure to deliver accurate and time sensitive data could result in users losing money by placing bid orders too high or ask orders too low.&lt;br&gt;&lt;br&gt;Why do you think space is important?&lt;br&gt;There are tons of orders that are created/executed every second/day/year. Data objects and schemas should be created with that in mind to avoid database bloating.&amp;nbsp;&lt;br&gt;&lt;br&gt;&lt;br&gt;&lt;br&gt;&lt;br&gt;&amp;nbsp;" style="text;html=1;align=left;verticalAlign=middle;resizable=0;points=[];autosize=1;strokeColor=none;fillColor=none;" vertex="1" parent="1">
          <mxGeometry x="-365" y="668" width="900" height="170" as="geometry" />
        </mxCell>
        <mxCell id="9S1BjOA5Y7KeHYhdbUai-88" value="&lt;div&gt;The customer has reported that there’s slowness in the REACT FE + REST API application. This is&lt;/div&gt;&lt;div&gt;unacceptable to them, and they want this to be fixed immediately because they are losing business. What&lt;/div&gt;&lt;div&gt;would you do to?&lt;/div&gt;&lt;div&gt;a. Investigate the issue to determine the scope of the issue&lt;/div&gt;&lt;div&gt;b. Identify the issue&lt;/div&gt;&lt;div&gt;c. Describe your approach to the solution&lt;/div&gt;&lt;div&gt;d. Describe how you would lead the team to zero in on a solution and fix the issue&lt;/div&gt;&lt;div&gt;&lt;br&gt;&lt;/div&gt;&lt;div&gt;a. Gather additional details and information about the issue from the customer. Where are you experiencing slowness. What were you trying to do when you noticed the slowness?&lt;/div&gt;&lt;div&gt;&lt;div style=&quot;border-color: var(--border-color);&quot;&gt;b. Can I reproduce the slowness in a non-prod environment? If not, will analyzing prod logs for service performance contain enough details for me to pinpoint the issue or safely rule out possible culprits? Are we waiting too long during I/O or are our services taking too long to run.&lt;/div&gt;&lt;div style=&quot;border-color: var(--border-color);&quot;&gt;c. If this is a scalability issue with one of our services are there cheap fixes we can implement first? If our services are idle for too long can we increase memory to bump efficiency or should we implement some database caches if our db reads are taking forever? Is there also an opportunity to optimize our db transactions.&lt;/div&gt;d. Ideally I&#39;d have one or two possible solutions to alleviate the issue. Maybe one is a quick monkey patch to get things resolved while the other is a more involved process of refactoring old code or updating our system. I&#39;d propose all options to the team with pros and cons of each while encouraging open dialogue on opinions of best solution. This discussion fills the team in on the issue with specific details so everyone is on the same page. A path to resolution would be selected shortly after these discussions and the work delegated to an engineer with capacity.&lt;/div&gt;" style="text;html=1;align=left;verticalAlign=middle;resizable=0;points=[];autosize=1;strokeColor=none;fillColor=none;" vertex="1" parent="1">
          <mxGeometry x="-365" y="785" width="3020" height="190" as="geometry" />
        </mxCell>
        <mxCell id="9S1BjOA5Y7KeHYhdbUai-89" value="&lt;div&gt;Business question:&lt;/div&gt;&lt;div&gt;Nasdaq has told you that this specific customer is very important for them and want you to ensure delivery of a&lt;/div&gt;&lt;div&gt;top-quality product to make them happy.&lt;/div&gt;&lt;div&gt;You’ve taken up a substantial effort feature in planning for the current sprint that you estimate is 35% done. While&lt;/div&gt;&lt;div&gt;you are making progress, you discovered unknown areas that need more work than your original estimates. You&lt;/div&gt;&lt;div&gt;still think that you can finish the planned task by putting in more focused effort.&lt;/div&gt;&lt;div&gt;The customer reaches out to you asking for 2 small enhancements to a feature you had delivered in the last sprint.&lt;/div&gt;&lt;div&gt;The test team has picked up issues and this will derail the planned go live of the feature you had delivered. The&lt;/div&gt;&lt;div&gt;customer mentions that the entire release will be delayed, and this will derail their product roadmap.&lt;/div&gt;&lt;div&gt;What would you do in this situation?&lt;/div&gt;&lt;div&gt;&lt;br&gt;&lt;/div&gt;&lt;div&gt;A discussion should be had with the customer to prioritize these enhancement requests as well as the additional work discovered...and any remaining work still left in the sprint. What are the tradeoffs for each and where is the highest return of investment per FTE. Lay out any risks in forgoing the newly discovered work. Are these showstoppers? Can we push some of this work out to the next sprint to prioritize the customers requests?&lt;/div&gt;&lt;div&gt;Is shifting our plan around 35% into the sprint a viable options. We may need to table any additional fringe enhancements still planned for this sprint&#39;s development to ensure test team availability.&lt;/div&gt;" style="text;html=1;align=left;verticalAlign=middle;resizable=0;points=[];autosize=1;strokeColor=none;fillColor=none;" vertex="1" parent="1">
          <mxGeometry x="-365" y="970" width="2330" height="200" as="geometry" />
        </mxCell>
        <mxCell id="9S1BjOA5Y7KeHYhdbUai-95" style="edgeStyle=orthogonalEdgeStyle;rounded=0;orthogonalLoop=1;jettySize=auto;html=1;" edge="1" parent="1" source="9S1BjOA5Y7KeHYhdbUai-91" target="9S1BjOA5Y7KeHYhdbUai-92">
          <mxGeometry relative="1" as="geometry" />
        </mxCell>
        <mxCell id="9S1BjOA5Y7KeHYhdbUai-91" value="Cancel Order Queue" style="verticalLabelPosition=bottom;html=1;verticalAlign=top;align=center;strokeColor=none;fillColor=#00BEF2;shape=mxgraph.azure.queue_generic;pointerEvents=1;" vertex="1" parent="1">
          <mxGeometry x="550" y="260" width="50" height="15" as="geometry" />
        </mxCell>
        <mxCell id="9S1BjOA5Y7KeHYhdbUai-92" value="Cancel Service" style="rounded=0;whiteSpace=wrap;html=1;" vertex="1" parent="1">
          <mxGeometry x="670" y="237.5" width="120" height="60" as="geometry" />
        </mxCell>
        <mxCell id="9S1BjOA5Y7KeHYhdbUai-96" value="Cancel Service" style="rounded=0;whiteSpace=wrap;html=1;" vertex="1" parent="1">
          <mxGeometry x="680" y="247.5" width="120" height="60" as="geometry" />
        </mxCell>
        <mxCell id="9S1BjOA5Y7KeHYhdbUai-98" style="edgeStyle=orthogonalEdgeStyle;rounded=0;orthogonalLoop=1;jettySize=auto;html=1;entryX=1;entryY=0.5;entryDx=0;entryDy=0;entryPerimeter=0;" edge="1" parent="1" source="9S1BjOA5Y7KeHYhdbUai-97" target="9S1BjOA5Y7KeHYhdbUai-51">
          <mxGeometry relative="1" as="geometry">
            <Array as="points">
              <mxPoint x="750" y="360" />
            </Array>
          </mxGeometry>
        </mxCell>
        <mxCell id="9S1BjOA5Y7KeHYhdbUai-97" value="Cancel Service" style="rounded=0;whiteSpace=wrap;html=1;" vertex="1" parent="1">
          <mxGeometry x="690" y="257.5" width="120" height="60" as="geometry" />
        </mxCell>
      </root>
    </mxGraphModel>
  </diagram>
</mxfile>
